<mxfile host="app.diagrams.net" modified="2021-05-27T02:42:56.322Z" agent="5.0 (Windows NT 6.1; WOW64) AppleWebKit/537.36 (KHTML, like Gecko) Chrome/88.0.4324.150 Safari/537.36" etag="JkASj44ZfLDnvNHZh8xS" version="14.7.1" type="github" pages="2">
  <diagram name="东莞区域城市停车项目梳理" id="e3a06f82-3646-2815-327d-82caf3d4e204">
    <mxGraphModel dx="1503" dy="911" grid="1" gridSize="10" guides="0" tooltips="1" connect="1" arrows="1" fold="1" page="1" pageScale="1.5" pageWidth="1169" pageHeight="826" background="none" math="0" shadow="0">
      <root>
        <mxCell id="0" style=";html=1;" />
        <mxCell id="1" style=";html=1;" parent="0" />
        <mxCell id="6a7d8f32e03d9370-61" value="&lt;div style=&quot;text-align: center&quot;&gt;&lt;span&gt;东莞生产环境&lt;/span&gt;&lt;/div&gt;&lt;b&gt;&lt;div style=&quot;text-align: center&quot;&gt;&lt;b&gt;ros.jslife.com.cn&lt;/b&gt;&lt;/div&gt;&lt;/b&gt;&lt;b&gt;&amp;nbsp; &amp;nbsp; &amp;nbsp; &amp;nbsp; &amp;nbsp; &amp;nbsp; &amp;nbsp; &amp;nbsp; &amp;nbsp; &amp;nbsp; &amp;nbsp; &amp;nbsp; &amp;nbsp; &amp;nbsp; &amp;nbsp; &amp;nbsp; &amp;nbsp; &amp;nbsp; &amp;nbsp; &amp;nbsp; &amp;nbsp; &amp;nbsp; &amp;nbsp; &amp;nbsp; &amp;nbsp; &amp;nbsp; &amp;nbsp; &amp;nbsp; &amp;nbsp; &amp;nbsp; &amp;nbsp; &amp;nbsp;&amp;nbsp;&lt;/b&gt;&lt;br&gt;&lt;div style=&quot;font-weight: bold&quot;&gt;&lt;div style=&quot;font-weight: 400&quot;&gt;&lt;b&gt;/jscsp-front/third&lt;/b&gt;&lt;/div&gt;&lt;div style=&quot;font-weight: 400&quot;&gt;&lt;b&gt;&amp;nbsp; &amp;nbsp; /road-parking&lt;/b&gt;&lt;/div&gt;&lt;/div&gt;&lt;div style=&quot;font-weight: bold&quot;&gt;&lt;b&gt;&lt;font color=&quot;#ff0000&quot;&gt;&lt;br&gt;&lt;/font&gt;&lt;/b&gt;&lt;/div&gt;&lt;div style=&quot;font-weight: bold&quot;&gt;&lt;b&gt;&lt;font color=&quot;#ff0000&quot;&gt;对接捷弈，路边路内二合一&lt;/font&gt;&lt;/b&gt;&lt;br&gt;&lt;/div&gt;&lt;div&gt;客户：&lt;font color=&quot;#ff0000&quot;&gt;东莞城市停车 cityCode:441900、&lt;/font&gt;&lt;/div&gt;&lt;div&gt;&lt;font color=&quot;#ff0000&quot;&gt;&amp;nbsp; &amp;nbsp; &amp;nbsp; &amp;nbsp; &amp;nbsp; &amp;nbsp;绵阳城市停车 cityCode:510700&lt;/font&gt;&lt;/div&gt;&lt;div&gt;入口：&lt;font color=&quot;#ff0000&quot;&gt;东莞分公司控制&lt;/font&gt;&lt;/div&gt;" style="whiteSpace=wrap;html=1;fontSize=20;strokeColor=none;verticalAlign=top;fillColor=#FFD470;align=left;" parent="1" vertex="1">
          <mxGeometry x="680" y="40" width="360" height="260" as="geometry" />
        </mxCell>
        <mxCell id="6a7d8f32e03d9370-60" value="&lt;div style=&quot;text-align: center&quot;&gt;&lt;span&gt;标准生产环境&lt;/span&gt;&lt;/div&gt;&lt;b&gt;&lt;div style=&quot;text-align: center&quot;&gt;&lt;b&gt;www.jslife.com.cn&lt;/b&gt;&lt;/div&gt;&amp;nbsp; &amp;nbsp; &amp;nbsp; &amp;nbsp; &amp;nbsp; &amp;nbsp; &amp;nbsp; &amp;nbsp; &amp;nbsp; &amp;nbsp; &amp;nbsp; &amp;nbsp; &amp;nbsp; &amp;nbsp; &amp;nbsp; &amp;nbsp; &amp;nbsp; &amp;nbsp; &amp;nbsp; &amp;nbsp; &amp;nbsp; &amp;nbsp; &amp;nbsp; &amp;nbsp; &amp;nbsp; &amp;nbsp; &amp;nbsp; &amp;nbsp; &amp;nbsp; &amp;nbsp; &amp;nbsp; &amp;nbsp;&amp;nbsp;&lt;br&gt;&lt;/b&gt;&lt;div style=&quot;font-weight: bold&quot;&gt;&lt;div style=&quot;font-weight: 400&quot;&gt;&lt;b&gt;/jscsp-front/third&lt;/b&gt;&lt;/div&gt;&lt;div style=&quot;font-weight: 400&quot;&gt;&lt;b&gt;&amp;nbsp; &amp;nbsp; /road-parking&lt;/b&gt;&lt;/div&gt;&lt;/div&gt;&lt;div style=&quot;font-weight: bold&quot;&gt;&lt;b&gt;&lt;font color=&quot;#ff0000&quot;&gt;&lt;br&gt;&lt;/font&gt;&lt;/b&gt;&lt;/div&gt;&lt;div style=&quot;font-weight: bold&quot;&gt;&lt;b&gt;&lt;font color=&quot;#ff0000&quot;&gt;对接天启，纯路边&lt;/font&gt;&lt;/b&gt;&lt;/div&gt;&lt;div&gt;客户：&lt;font color=&quot;#ff0000&quot;&gt;东莞清溪镇、&lt;/font&gt;&lt;/div&gt;&lt;div&gt;&lt;font color=&quot;#ff0000&quot;&gt;&amp;nbsp; &amp;nbsp; &amp;nbsp; &amp;nbsp; &amp;nbsp; &amp;nbsp;东莞麻涌镇&lt;/font&gt;&lt;/div&gt;&lt;div&gt;入口：&lt;font color=&quot;#ff0000&quot;&gt;东莞分公司控制&lt;/font&gt;&lt;/div&gt;" style="whiteSpace=wrap;html=1;fontSize=20;strokeColor=none;verticalAlign=top;fillColor=#DAE8FC;align=left;" parent="1" vertex="1">
          <mxGeometry x="680" y="300" width="360" height="260" as="geometry" />
        </mxCell>
        <mxCell id="6a7d8f32e03d9370-59" value="测试环境&lt;br&gt;&lt;b&gt;jtc-test.jslife.com.cn&lt;/b&gt;&lt;br&gt;&amp;nbsp; &amp;nbsp; &amp;nbsp; &amp;nbsp; &amp;nbsp; &amp;nbsp; &amp;nbsp; &amp;nbsp; &amp;nbsp; &amp;nbsp; &amp;nbsp; &amp;nbsp; &amp;nbsp; &amp;nbsp; &amp;nbsp; &amp;nbsp; &amp;nbsp; &amp;nbsp; &amp;nbsp; &amp;nbsp; &amp;nbsp; &amp;nbsp; &amp;nbsp; &amp;nbsp; &amp;nbsp; &amp;nbsp; &amp;nbsp; &amp;nbsp; &amp;nbsp;&lt;br&gt;&lt;div style=&quot;text-align: left&quot;&gt;&lt;span&gt;&lt;b&gt;/jscsp-front/third&lt;/b&gt;&lt;/span&gt;&lt;/div&gt;&lt;div style=&quot;text-align: left&quot;&gt;&lt;span&gt;&lt;b&gt;&amp;nbsp; &amp;nbsp; /road-parking&lt;/b&gt;&lt;/span&gt;&lt;/div&gt;&lt;div style=&quot;text-align: left&quot;&gt;&lt;b&gt;&amp;nbsp; &amp;nbsp; &lt;font color=&quot;#ff0000&quot;&gt;同一时间仅能测试单个版本&lt;/font&gt;&lt;/b&gt;&lt;/div&gt;" style="whiteSpace=wrap;html=1;fillColor=#EDEDED;fontSize=20;strokeColor=none;verticalAlign=top;" parent="1" vertex="1">
          <mxGeometry x="320" y="200" width="280" height="200" as="geometry" />
        </mxCell>
        <mxCell id="6a7d8f32e03d9370-58" value="标准代码库&lt;br&gt;&lt;br&gt;&lt;div style=&quot;text-align: left&quot;&gt;&lt;b&gt;h5-front-jtc&lt;/b&gt;&lt;/div&gt;&lt;b&gt;&lt;div style=&quot;text-align: left&quot;&gt;&lt;b&gt;h5-front-jtc-third&lt;/b&gt;&lt;/div&gt;&lt;/b&gt;" style="whiteSpace=wrap;html=1;fillColor=#dae8fc;fontSize=20;strokeColor=none;verticalAlign=top;" parent="1" vertex="1">
          <mxGeometry y="320" width="240" height="160" as="geometry" />
        </mxCell>
        <mxCell id="j2oiQKVscd1AGmcSYkZs-3" value="" style="rounded=0;orthogonalLoop=1;jettySize=auto;html=1;fontSize=14;strokeWidth=2;endFill=0;endArrow=none;endSize=10;startSize=10;" edge="1" parent="1" source="6a7d8f32e03d9370-57" target="6a7d8f32e03d9370-59">
          <mxGeometry relative="1" as="geometry" />
        </mxCell>
        <mxCell id="6a7d8f32e03d9370-57" value="东莞代码库&lt;br&gt;&lt;br&gt;&lt;div style=&quot;text-align: left&quot;&gt;&lt;b&gt;h5-dongguan-jtc&lt;/b&gt;&lt;/div&gt;" style="whiteSpace=wrap;html=1;fillColor=#FFD470;gradientColor=none;fontSize=20;strokeColor=none;verticalAlign=top;" parent="1" vertex="1">
          <mxGeometry y="120" width="240" height="160" as="geometry" />
        </mxCell>
        <mxCell id="6a7d8f32e03d9370-35" style="edgeStyle=none;rounded=0;html=1;startSize=10;endSize=10;jettySize=auto;orthogonalLoop=1;fontSize=14;endArrow=none;endFill=0;strokeWidth=2;" parent="1" source="6a7d8f32e03d9370-58" target="6a7d8f32e03d9370-59" edge="1">
          <mxGeometry relative="1" as="geometry">
            <mxPoint x="8.5" y="452.52410207939533" as="sourcePoint" />
          </mxGeometry>
        </mxCell>
        <mxCell id="6a7d8f32e03d9370-42" style="edgeStyle=none;rounded=0;html=1;startSize=10;endSize=10;jettySize=auto;orthogonalLoop=1;fontSize=14;endArrow=none;endFill=0;strokeWidth=2;" parent="1" source="6a7d8f32e03d9370-11" edge="1">
          <mxGeometry relative="1" as="geometry">
            <mxPoint x="759" y="365.8827160493829" as="targetPoint" />
          </mxGeometry>
        </mxCell>
        <mxCell id="j2oiQKVscd1AGmcSYkZs-2" value="" style="edgeStyle=orthogonalEdgeStyle;rounded=0;orthogonalLoop=1;jettySize=auto;html=1;" edge="1" parent="1" source="6a7d8f32e03d9370-17">
          <mxGeometry relative="1" as="geometry">
            <mxPoint x="679" y="202.5" as="targetPoint" />
          </mxGeometry>
        </mxCell>
        <mxCell id="6a7d8f32e03d9370-46" style="edgeStyle=none;rounded=0;html=1;startSize=10;endSize=10;jettySize=auto;orthogonalLoop=1;fontSize=14;endArrow=none;endFill=0;strokeWidth=2;" parent="1" source="6a7d8f32e03d9370-59" target="6a7d8f32e03d9370-61" edge="1">
          <mxGeometry relative="1" as="geometry">
            <mxPoint x="374" y="304.2408088235295" as="sourcePoint" />
          </mxGeometry>
        </mxCell>
        <mxCell id="6a7d8f32e03d9370-47" style="edgeStyle=none;rounded=0;html=1;startSize=10;endSize=10;jettySize=auto;orthogonalLoop=1;fontSize=14;endArrow=none;endFill=0;strokeWidth=2;" parent="1" source="6a7d8f32e03d9370-59" target="6a7d8f32e03d9370-60" edge="1">
          <mxGeometry relative="1" as="geometry">
            <mxPoint x="374" y="438.9099264705883" as="sourcePoint" />
          </mxGeometry>
        </mxCell>
        <mxCell id="6a7d8f32e03d9370-62" value="东莞城市停车" style="text;strokeColor=none;fillColor=none;html=1;fontSize=25;fontStyle=1;verticalAlign=middle;align=center;" parent="1" vertex="1">
          <mxGeometry x="29.5" width="861" height="40" as="geometry" />
        </mxCell>
        <mxCell id="j2oiQKVscd1AGmcSYkZs-5" value="ros.jslife.com.cn/jtc-front/dongguan/dist&lt;br&gt;&amp;nbsp; 捷停车东莞公众号部分已改为4.0区域号实现&lt;br&gt;&amp;nbsp; 但部分页面仍会被 jscsp-front/third 使用&lt;br&gt;ros.jslife.com.cn/jscsp-front/third&lt;br&gt;&amp;nbsp; &amp;nbsp; /road-parking&lt;br&gt;&amp;nbsp; &amp;nbsp; /city-parking&lt;br&gt;&amp;nbsp; &amp;nbsp; /mianyang-road&lt;br&gt;&amp;nbsp; &amp;nbsp; /receiveCoupon" style="text;html=1;strokeColor=none;fillColor=none;align=left;verticalAlign=top;whiteSpace=wrap;rounded=0;fontSize=20;" vertex="1" parent="1">
          <mxGeometry x="10" y="560" width="720" height="200" as="geometry" />
        </mxCell>
      </root>
    </mxGraphModel>
  </diagram>
  <diagram id="hX4QKLf-VHRnklhFNB4n" name="生产客服问题梳理">
    <mxGraphModel dx="1503" dy="911" grid="1" gridSize="10" guides="1" tooltips="1" connect="1" arrows="1" fold="1" page="1" pageScale="1" pageWidth="827" pageHeight="1169" math="0" shadow="0">
      <root>
        <mxCell id="Vcfc9h6w2m6-KzRkpfo1-0" />
        <mxCell id="Vcfc9h6w2m6-KzRkpfo1-1" parent="Vcfc9h6w2m6-KzRkpfo1-0" />
        <mxCell id="wrlHLk6mMZjb8vaDHINe-0" value="13734020303&lt;br&gt;机主（&lt;font color=&quot;#ff0000&quot;&gt;投诉人&lt;/font&gt;）" style="text;html=1;strokeColor=none;fillColor=none;align=center;verticalAlign=middle;whiteSpace=wrap;rounded=0;fontSize=20;" vertex="1" parent="Vcfc9h6w2m6-KzRkpfo1-1">
          <mxGeometry x="150" y="120" width="150" height="50" as="geometry" />
        </mxCell>
        <mxCell id="wrlHLk6mMZjb8vaDHINe-1" value="&lt;font color=&quot;#0000ff&quot;&gt;134****0970&lt;/font&gt;&lt;br&gt;机主（&lt;font color=&quot;#0000ff&quot;&gt;缴费人&lt;/font&gt;）" style="text;html=1;strokeColor=none;fillColor=none;align=center;verticalAlign=middle;whiteSpace=wrap;rounded=0;fontSize=20;" vertex="1" parent="Vcfc9h6w2m6-KzRkpfo1-1">
          <mxGeometry x="150" y="230" width="150" height="50" as="geometry" />
        </mxCell>
        <mxCell id="wrlHLk6mMZjb8vaDHINe-2" value="&lt;div&gt;微信: on61lxC_4sjmzmosfFf3in70f9fI （&lt;font color=&quot;#0000ff&quot;&gt;收到消息推送&lt;/font&gt;）&lt;/div&gt;捷停车登录帐号: &lt;font color=&quot;#0000ff&quot;&gt;134****0970&lt;/font&gt;" style="text;html=1;strokeColor=none;fillColor=none;align=left;verticalAlign=middle;whiteSpace=wrap;rounded=0;fontSize=20;" vertex="1" parent="Vcfc9h6w2m6-KzRkpfo1-1">
          <mxGeometry x="460" y="120" width="510" height="50" as="geometry" />
        </mxCell>
        <mxCell id="wrlHLk6mMZjb8vaDHINe-3" value="微信: on61lxCo085TEShhr7AnduLqnpQ0&lt;br&gt;捷停车登录帐号: 13734020303" style="text;html=1;strokeColor=none;fillColor=none;align=left;verticalAlign=middle;whiteSpace=wrap;rounded=0;fontSize=20;" vertex="1" parent="Vcfc9h6w2m6-KzRkpfo1-1">
          <mxGeometry x="460" width="380" height="50" as="geometry" />
        </mxCell>
        <mxCell id="wrlHLk6mMZjb8vaDHINe-4" value="" style="endArrow=classic;html=1;fontSize=20;startSize=10;endSize=10;strokeWidth=2;" edge="1" parent="Vcfc9h6w2m6-KzRkpfo1-1" source="wrlHLk6mMZjb8vaDHINe-0" target="wrlHLk6mMZjb8vaDHINe-2">
          <mxGeometry width="50" height="50" relative="1" as="geometry">
            <mxPoint x="720" y="250" as="sourcePoint" />
            <mxPoint x="770" y="200" as="targetPoint" />
          </mxGeometry>
        </mxCell>
        <mxCell id="wrlHLk6mMZjb8vaDHINe-5" value="&lt;font color=&quot;#ff0000&quot;&gt;当前使用&lt;/font&gt;" style="text;html=1;strokeColor=none;fillColor=none;align=center;verticalAlign=middle;whiteSpace=wrap;rounded=0;fontSize=20;" vertex="1" parent="Vcfc9h6w2m6-KzRkpfo1-1">
          <mxGeometry x="340" y="120" width="90" height="20" as="geometry" />
        </mxCell>
        <mxCell id="wrlHLk6mMZjb8vaDHINe-6" value="" style="endArrow=classic;dashed=1;html=1;dashPattern=1 3;strokeWidth=2;fontSize=20;entryX=0.5;entryY=1;entryDx=0;entryDy=0;endFill=1;exitX=1;exitY=0;exitDx=0;exitDy=0;" edge="1" parent="Vcfc9h6w2m6-KzRkpfo1-1" source="wrlHLk6mMZjb8vaDHINe-1" target="wrlHLk6mMZjb8vaDHINe-2">
          <mxGeometry width="50" height="50" relative="1" as="geometry">
            <mxPoint x="550" y="250" as="sourcePoint" />
            <mxPoint x="600" y="200" as="targetPoint" />
          </mxGeometry>
        </mxCell>
        <mxCell id="wrlHLk6mMZjb8vaDHINe-7" value="" style="endArrow=classic;dashed=1;html=1;dashPattern=1 3;strokeWidth=2;fontSize=20;entryX=0.5;entryY=1;entryDx=0;entryDy=0;endFill=1;" edge="1" parent="Vcfc9h6w2m6-KzRkpfo1-1" source="wrlHLk6mMZjb8vaDHINe-0" target="wrlHLk6mMZjb8vaDHINe-3">
          <mxGeometry width="50" height="50" relative="1" as="geometry">
            <mxPoint x="300" y="251.52439024390242" as="sourcePoint" />
            <mxPoint x="645" y="180" as="targetPoint" />
          </mxGeometry>
        </mxCell>
        <mxCell id="wrlHLk6mMZjb8vaDHINe-8" value="晋A725RR" style="rounded=0;whiteSpace=wrap;html=1;fontSize=20;align=center;verticalAlign=middle;labelBackgroundColor=none;fillColor=none;" vertex="1" parent="Vcfc9h6w2m6-KzRkpfo1-1">
          <mxGeometry y="110" width="120" height="60" as="geometry" />
        </mxCell>
        <mxCell id="wrlHLk6mMZjb8vaDHINe-9" value="&lt;font color=&quot;#0000ff&quot;&gt;晋A***RR&lt;/font&gt;" style="rounded=0;whiteSpace=wrap;html=1;fontSize=20;align=center;verticalAlign=middle;fillColor=none;" vertex="1" parent="Vcfc9h6w2m6-KzRkpfo1-1">
          <mxGeometry y="230" width="120" height="60" as="geometry" />
        </mxCell>
      </root>
    </mxGraphModel>
  </diagram>
</mxfile>
